<?xml version="1.0" encoding="utf-8"?>
<!-- Generator: Adobe Illustrator 22.0.1, SVG Export Plug-In . SVG Version: 6.00 Build 0)  -->
<svg version="1.1" id="Layer_1" xmlns="http://www.w3.org/2000/svg" xmlns:xlink="http://www.w3.org/1999/xlink" x="0px" y="0px"
	 viewBox="0 0 483 268" style="enable-background:new 0 0 483 268;" xml:space="preserve">
<style type="text/css">
	.st0{fill:none;stroke:#000000;stroke-width:9;stroke-miterlimit:10;}
	.st1{stroke:#FFFFFF;stroke-width:8;stroke-miterlimit:10;}
	.st2{fill:none;stroke:#000000;stroke-width:3.15;stroke-miterlimit:10;}
	.st3{fill:none;stroke:#000000;stroke-width:3;stroke-miterlimit:10;}
	.st4{stroke:#000000;stroke-width:2;stroke-miterlimit:10;}
	.st5{fill:none;stroke:#000000;stroke-width:5;stroke-miterlimit:10;}
	.st6{fill:none;stroke:#000000;stroke-width:2;stroke-miterlimit:10;}
	.st7{stroke:#000000;stroke-width:3.15;stroke-miterlimit:10;}
	.st8{fill:#990000;stroke:#000000;stroke-width:3.15;stroke-miterlimit:10;}
	.st9{fill:#66CC66;stroke:#000000;stroke-width:3.15;stroke-miterlimit:10;}
	.st10{fill:#FFCC66;stroke:#000000;stroke-width:3.15;stroke-miterlimit:10;}
	.st11{fill:#FFFFFF;stroke:#000000;stroke-width:2;stroke-miterlimit:10;}
	.st12{fill:none;stroke:#000000;stroke-width:1.0505;stroke-miterlimit:10;}
	.st13{fill:none;stroke:#000000;stroke-width:0.667;stroke-miterlimit:10;}
	.st14{fill:none;stroke:#000000;stroke-width:1.2592;stroke-miterlimit:10;}
	.st15{fill:none;stroke:#000000;stroke-width:1.5111;stroke-miterlimit:10;}
	.st16{fill:none;stroke:#000000;stroke-width:1.9308;stroke-miterlimit:10;}
	.st17{fill:#FFFFFF;stroke:#000000;stroke-width:1.2592;stroke-miterlimit:10;}
	.st18{fill:#FFFFFF;stroke:#000000;stroke-width:1.5111;stroke-miterlimit:10;}
	.st19{fill:#FFFFFF;stroke:#000000;stroke-width:1.9308;stroke-miterlimit:10;}
	.st20{fill:none;stroke:#000000;stroke-width:1.1663;stroke-miterlimit:10;}
	.st21{fill:none;stroke:#000000;stroke-width:0.7405;stroke-miterlimit:10;}
	.st22{fill:none;stroke:#000000;stroke-width:0.4662;stroke-miterlimit:10;}
	.st23{fill:none;stroke:#000000;stroke-width:0.5595;stroke-miterlimit:10;}
	.st24{fill:none;stroke:#000000;stroke-width:0.7149;stroke-miterlimit:10;}
	.st25{fill:#990000;}
	.st26{fill:#66CC66;}
	.st27{fill:#FFCC66;}
	.st28{fill:#F9ECD7;}
	.st29{clip-path:url(#SVGID_2_);fill:none;stroke:#000000;stroke-width:2;stroke-miterlimit:10;}
	.st30{fill:none;stroke:#000000;stroke-width:3.7143;stroke-miterlimit:10;}
	.st31{fill:none;stroke:#000000;stroke-width:2.3583;stroke-miterlimit:10;}
	.st32{fill:none;stroke:#000000;stroke-width:3.6766;stroke-miterlimit:10;}
	.st33{clip-path:url(#SVGID_4_);fill:none;stroke:#000000;stroke-width:2.3343;stroke-miterlimit:10;}
	.st34{fill:none;stroke:#000000;stroke-width:2.3343;stroke-miterlimit:10;}
	.st35{fill:none;stroke:#000000;stroke-width:3.5015;stroke-miterlimit:10;}
	.st36{fill:none;stroke:#000000;stroke-miterlimit:10;}
	.st37{clip-path:url(#SVGID_6_);fill:none;stroke:#000000;stroke-miterlimit:10;}
	.st38{fill:none;stroke:#F9ECD7;stroke-width:3;stroke-miterlimit:10;}
	.st39{fill:none;stroke:#F9ECD7;stroke-width:3.15;stroke-miterlimit:10;}
	.st40{fill:none;stroke:#F9ECD7;stroke-width:2;stroke-miterlimit:10;}
	.st41{fill:none;stroke:#F9ECD7;stroke-width:1.5111;stroke-miterlimit:10;}
	.st42{fill:none;stroke:#F9ECD7;stroke-width:1.9308;stroke-miterlimit:10;}
	.st43{fill:#FCF2DE;}
	.st44{fill:none;stroke:#F9ECD7;stroke-width:3.7143;stroke-miterlimit:10;}
	.st45{fill:none;stroke:#F9ECD7;stroke-width:2.3583;stroke-miterlimit:10;}
	.st46{clip-path:url(#SVGID_8_);fill:none;stroke:#000000;stroke-width:2.3343;stroke-miterlimit:10;}
	.st47{fill:#FFFFFF;}
	.st48{clip-path:url(#SVGID_10_);fill:none;stroke:#000000;stroke-width:2.3343;stroke-miterlimit:10;}
	.st49{fill:none;stroke:#F9ECD7;stroke-width:3.6766;stroke-miterlimit:10;}
	.st50{clip-path:url(#SVGID_12_);fill:none;stroke:#F9ECD7;stroke-width:2.3343;stroke-miterlimit:10;}
	.st51{fill:none;stroke:#F9ECD7;stroke-width:2.3343;stroke-miterlimit:10;}
	.st52{fill:none;stroke:#F9ECD7;stroke-width:3.5015;stroke-miterlimit:10;}
</style>
<path class="st28" d="M106.6,89.7l-0.1-14.5c-0.2-18.7,6.3-27.1,23.3-27.3c17-0.1,23.6,8.2,23.7,23.3l-3.3,0
	c-0.1-13.4-5.6-20.9-20.4-20.8c-14.7,0.1-20.2,7.7-20,24.5l0.1,14.9c0.1,17,5.8,24.4,20.5,24.3c14.8-0.1,20.2-7.6,20.1-21.3l3.3,0
	c0.1,15.2-6.3,23.7-23.3,23.8C113.3,116.8,106.8,108.4,106.6,89.7z"/>
<path class="st28" d="M153,172.4c0.1,13-7.1,19-19.9,19.1l-24.7,0.2l-0.6-67.7l23.6-0.2c11.9-0.1,18.9,5.1,19,15.5
	c0.1,9.3-4.1,14.7-11.9,15.7C146.7,155.7,152.9,161,153,172.4z M131.2,126.4l-20.1,0.2l0.2,27.6l21-0.2c10.3-0.1,15.1-4.2,15-14.2
	C147.2,130.7,141.3,126.3,131.2,126.4z M149.7,172.1c-0.1-11.5-6.1-15.9-17.3-15.8l-21.1,0.2l0.3,32.6l21.1-0.2
	C143.9,188.8,149.8,183.6,149.7,172.1z"/>
<line class="st38" x1="318" y1="49.8" x2="319.2" y2="190.7"/>
<polyline class="st38" points="392.4,48.7 319.5,118.9 395.7,190 "/>
<circle class="st39" cx="196.7" cy="82.5" r="31.5"/>
<circle class="st39" cx="270.7" cy="81.8" r="31.5"/>
<circle class="st39" cx="197.3" cy="159.5" r="31.5"/>
<circle class="st39" cx="271.3" cy="158.8" r="31.5"/>
<circle class="st40" cx="196.7" cy="82.5" r="23.8"/>
<circle class="st41" cx="197.3" cy="159.5" r="18"/>
<circle class="st42" cx="271.3" cy="158.8" r="23"/>
</svg>
